<svg width="359" height="205" viewBox="0 0 359 205" fill="none" xmlns="http://www.w3.org/2000/svg">
<g style="mix-blend-mode:soft-light" opacity="0.5">
<path d="M0 143.07H106.3C106.3 143.07 98.7 119.77 85.9 123.17C73.1 126.47 73.6 129.37 73.6 129.37C73.6 129.37 69.8 109.47 52.7 112.27C35.6 115.07 31.8 128.87 31.8 128.87C31.8 128.87 20.9 124.57 16.1 128.87C11.4 133.17 12.3 135.47 12.3 135.47C12.3 135.47 1.9 130.77 0 143.07Z" fill="white"/>
</g>
<g style="mix-blend-mode:soft-light" opacity="0.8">
<path d="M281 100.216C279.8 96.8161 277.1 90.9161 272.9 89.5161C266.9 87.5161 258 94.1161 258 94.1161C258 94.1161 253.7 78.6161 239.3 78.0161C224.9 77.4161 227.5 93.8161 227.5 93.8161C227.5 93.8161 223.8 92.7161 216.3 90.4161C208.8 88.1161 206.2 95.0161 206.2 95.0161C201.5 93.3161 199.6 97.8161 199 100.216H281Z" fill="white"/>
</g>
<path d="M57.7 0C57.7 0 57.5 2.6 55 2.9C57.5 3.2 57.7 5.8 57.7 5.8C57.7 5.8 57.9 3.2 60.4 2.9C57.9 2.7 57.7 0 57.7 0Z" fill="#FFD08A"/>
<path d="M191.7 41C191.7 41 191.5 43.6 189 43.9C191.5 44.2 191.7 46.8 191.7 46.8C191.7 46.8 191.9 44.2 194.4 43.9C191.9 43.7 191.7 41 191.7 41Z" fill="#FFD08A"/>
<path d="M93.7 31C93.7 31 93.5 33.6 91 33.9C93.5 34.2 93.7 36.8 93.7 36.8C93.7 36.8 93.9 34.2 96.4 33.9C93.9 33.7 93.7 31 93.7 31Z" fill="#FFD08A"/>
<path d="M313.7 100C313.7 100 313.5 102.6 311 102.9C313.5 103.2 313.7 105.8 313.7 105.8C313.7 105.8 313.9 103.2 316.4 102.9C313.8 102.7 313.7 100 313.7 100Z" fill="#FFD08A"/>
<path d="M197.3 159.6C197.3 159.6 197.1 162.2 194.6 162.5C197.1 162.8 197.3 165.4 197.3 165.4C197.3 165.4 197.5 162.8 200 162.5C197.4 162.3 197.3 159.6 197.3 159.6Z" fill="#FFD08A"/>
<path d="M153.1 70C153.1 70 152.6 77 146 77.6C152.6 78.3 153.1 85.2 153.1 85.2C153.1 85.2 153.6 78.2 160.2 77.6C153.6 77 153.1 70 153.1 70Z" fill="#FFD08A"/>
<path d="M29.1 58.7C29.1 58.7 28.6 65.7 22 66.3C28.6 67 29.1 73.9 29.1 73.9C29.1 73.9 29.6 66.9 36.2 66.3C29.6 65.7 29.1 58.7 29.1 58.7Z" fill="#FFD08A"/>
<path d="M146.2 0C146.2 0 145.8 5.1 141 5.6C145.8 6.1 146.2 11.2 146.2 11.2C146.2 11.2 146.6 6.1 151.4 5.6C146.6 5 146.2 0 146.2 0Z" fill="#FFD08A"/>
<path d="M72.6 95C72.6 95 72.3 99.5 68 100C72.3 100.4 72.6 105 72.6 105C72.6 105 72.9 100.5 77.2 100C73 99.5 72.6 95 72.6 95Z" fill="#FFD08A"/>
<path d="M113.5 194.9C113.5 194.9 113.2 199.4 108.9 199.9C113.2 200.3 113.5 204.9 113.5 204.9C113.5 204.9 113.8 200.4 118.1 199.9C113.8 199.4 113.5 194.9 113.5 194.9Z" fill="#FFD08A"/>
<g style="mix-blend-mode:soft-light" opacity="0.5">
<path d="M251.8 168.5H358.1C358.1 168.5 350.5 145.2 337.7 148.6C324.9 151.9 325.4 154.8 325.4 154.8C325.4 154.8 321.6 134.9 304.5 137.7C287.4 140.5 283.6 154.3 283.6 154.3C283.6 154.3 272.7 150 267.9 154.3C263.2 158.6 264.1 160.9 264.1 160.9C264.1 160.9 253.7 156.2 251.8 168.5Z" fill="white"/>
</g>
</svg>
